<?xml version="1.0" standalone="no"?>
<!DOCTYPE svg PUBLIC "-//W3C//DTD SVG 20010904//EN"
 "http://www.w3.org/TR/2001/REC-SVG-20010904/DTD/svg10.dtd">
<svg version="1.0" xmlns="http://www.w3.org/2000/svg"
 width="207.000000pt" height="207.000000pt" viewBox="0 0 207.000000 207.000000"
 preserveAspectRatio="xMidYMid meet">
<metadata>
Created by potrace 1.11, written by Peter Selinger 2001-2013
</metadata>
<g transform="translate(0.000000,207.000000) scale(0.100000,-0.100000)"
fill="#000000" stroke="none">
<path d="M908 1419 c-14 -9 -19 -303 -6 -338 6 -16 16 -21 47 -21 22 0 42 5
44 13 4 10 6 10 6 0 1 -16 138 -18 161 -3 21 13 21 337 -1 351 -20 13 -27 11
-32 -8 -4 -16 -5 -16 -6 -1 -1 14 -15 16 -101 15 -54 0 -105 -4 -112 -8z"/>
<path d="M1229 1419 c-11 -6 -14 -44 -13 -174 0 -91 4 -168 8 -172 4 -4 61 -8
127 -9 105 -1 122 2 133 17 15 22 12 315 -4 334 -11 14 -229 18 -251 4z"/>
<path d="M586 1404 c-9 -24 -7 -307 3 -322 9 -15 69 -23 77 -10 3 5 11 5 17 1
20 -12 150 -5 159 9 9 15 11 298 2 321 -4 12 -30 15 -129 16 -104 1 -124 -1
-129 -15z"/>
<path d="M771 1030 c-23 -3 -36 -12 -42 -28 -8 -20 -6 -21 11 -12 29 16 31 13
29 -37 -3 -75 -1 -85 19 -81 9 2 15 11 13 19 -3 13 -4 64 -2 98 1 8 8 11 20 8
28 -7 34 19 8 30 -12 5 -37 6 -56 3z"/>
<path d="M235 965 c3 -55 2 -66 -10 -61 -21 8 -30 -13 -13 -30 13 -13 17 -13
37 3 19 16 22 26 19 83 -2 51 -7 65 -20 68 -15 3 -16 -5 -13 -63z"/>
<path d="M321 1003 c-12 -14 -24 -38 -27 -52 -3 -14 -7 -30 -9 -36 -4 -16 15
-45 29 -45 9 0 12 7 9 21 -6 23 10 39 41 39 15 0 17 -5 13 -30 -6 -25 -3 -30
13 -30 16 0 20 7 20 39 0 50 -18 99 -40 111 -25 14 -26 13 -49 -17z m43 -46
c-8 -5 -22 -6 -31 -3 -14 6 -14 9 3 27 17 19 19 19 31 3 11 -15 11 -20 -3 -27z"/>
<path d="M429 1008 c-3 -45 0 -67 16 -104 l16 -39 21 25 20 25 20 -25 c19 -23
21 -24 33 -6 18 23 39 112 31 131 -3 8 -11 15 -18 15 -9 0 -12 -13 -10 -42 3
-42 -10 -79 -23 -66 -4 4 -8 28 -9 55 -1 34 -6 48 -16 48 -10 0 -15 -13 -16
-41 -2 -81 -34 -84 -34 -3 0 37 -4 49 -15 49 -8 0 -16 -10 -16 -22z"/>
<path d="M626 998 c-26 -35 -29 -46 -27 -95 1 -25 6 -33 19 -33 13 0 18 8 17
28 0 23 5 28 29 30 27 3 29 2 23 -28 -6 -26 -4 -31 11 -28 48 9 9 158 -42 158
-3 0 -16 -15 -30 -32z m60 -35 c-2 -2 -16 -6 -31 -9 -27 -5 -27 1 -1 34 8 11
12 11 23 -4 7 -10 11 -19 9 -21z"/>
<path d="M867 1023 c-3 -5 -4 -39 -3 -78 1 -54 4 -70 16 -70 11 0 15 16 15 78
1 55 -3 77 -11 77 -7 0 -15 -3 -17 -7z"/>
<path d="M929 1023 c-12 -110 -8 -153 14 -153 10 0 12 16 9 63 -5 64 5 70 24
14 15 -43 30 -44 38 -2 11 57 29 42 24 -20 -4 -48 -2 -55 14 -55 18 0 20 9 20
85 0 55 -3 66 -19 72 -11 4 -24 -3 -40 -23 -12 -16 -23 -24 -23 -17 0 26 -58
60 -61 36z"/>
<path d="M1094 1004 c-16 -64 13 -134 56 -134 39 0 55 26 55 92 0 48 -3 63
-15 63 -11 0 -13 -12 -11 -52 2 -44 -1 -53 -18 -63 -18 -9 -23 -7 -31 16 -6
15 -8 44 -5 65 5 31 3 39 -9 39 -9 0 -19 -12 -22 -26z"/>
<path d="M1229 988 c-7 -77 0 -120 19 -116 12 2 16 11 14 32 -3 22 0 27 15 24
10 -2 19 -12 22 -23 3 -19 18 -35 34 -35 13 0 7 35 -10 59 -15 22 -15 25 2 37
15 12 17 18 7 39 -10 21 -18 25 -56 25 l-44 0 -3 -42z m69 13 c11 -6 10 -11
-3 -25 -22 -21 -35 -20 -35 2 0 30 14 39 38 23z"/>
<path d="M1366 1022 c-5 -8 -10 -100 -7 -134 1 -10 9 -16 21 -15 14 1 18 6 14
22 -4 17 4 27 35 48 43 29 56 69 25 81 -23 9 -82 7 -88 -2z m64 -22 c13 -9 11
-13 -9 -30 -28 -24 -36 -20 -27 15 7 27 13 30 36 15z"/>
<path d="M1507 1012 c-8 -9 -20 -30 -26 -45 -11 -28 -15 -87 -7 -87 2 0 12 -3
21 -6 13 -5 16 -1 13 22 -3 26 0 29 27 29 19 0 29 -5 28 -12 -2 -7 -4 -18 -5
-25 -5 -21 27 -14 33 7 7 28 -9 96 -28 117 -20 23 -36 23 -56 0z m51 -47 c-3
-3 -15 -7 -27 -10 -23 -4 -28 14 -9 33 10 10 15 9 27 -3 8 -8 12 -17 9 -20z"/>
<path d="M1617 1023 c-8 -16 -8 -141 0 -146 14 -9 31 6 34 31 6 34 23 31 34
-5 9 -32 28 -43 40 -23 3 5 -1 24 -10 41 -12 22 -14 34 -6 42 16 16 13 54 -5
61 -22 8 -82 7 -87 -1z m69 -25 c7 -10 -20 -38 -38 -38 -12 0 -10 24 4 38 15
15 25 15 34 0z"/>
<path d="M1747 1013 c-7 -29 -8 -103 -2 -124 9 -27 34 -24 33 4 -2 59 14 64
36 12 8 -19 20 -35 25 -35 16 0 13 36 -4 71 -14 27 -14 32 0 51 19 28 19 38 0
38 -9 0 -19 -10 -24 -23 -5 -13 -17 -29 -27 -37 -16 -14 -17 -12 -10 23 5 29
4 37 -8 37 -8 0 -17 -8 -19 -17z"/>
<path d="M172 829 c-14 -6 -15 -8 -2 -13 12 -5 1697 -2 1733 3 5 1 6 5 3 10
-7 10 -1706 10 -1734 0z"/>
<path d="M526 763 c-24 -48 11 -96 54 -73 19 10 17 50 -2 50 -6 0 -8 -7 -4
-15 4 -10 -1 -15 -15 -15 -16 0 -20 5 -17 28 2 21 8 27 26 26 12 0 22 5 22 13
0 25 -49 15 -64 -14z"/>
<path d="M759 783 c-6 -72 -5 -84 7 -94 11 -9 14 -6 14 17 l1 29 25 -30 c25
-29 26 -29 19 -5 -7 27 -7 35 -3 65 2 16 -3 21 -29 23 -18 2 -33 0 -34 -5z"/>
<path d="M1000 771 c-17 -32 -13 -79 8 -83 34 -7 60 4 64 27 11 54 -48 100
-72 56z m48 -34 c3 -22 -1 -27 -17 -27 -15 0 -21 6 -21 23 0 46 33 49 38 4z"/>
<path d="M1230 751 c0 -45 21 -72 50 -64 21 6 37 60 26 89 -9 24 -20 9 -20
-29 -1 -49 -31 -44 -31 6 0 23 -5 37 -12 37 -8 0 -13 -15 -13 -39z"/>
<path d="M1470 740 c0 -39 4 -50 16 -50 8 0 12 5 9 10 -4 6 5 20 19 31 14 11
26 29 26 40 0 15 -7 19 -35 19 l-35 0 0 -50z"/>
</g>
</svg>
